<svg version="1.1" preserveAspectRatio="none" xmlns="http://www.w3.org/2000/svg" width="500" height="500" viewBox="0 0 500 500"><rect width="100%" height="100%" fill="#F7F7F7" fill-opacity="1"/><svg viewBox="446.6983 523.2785 306.6036 313.3017" width="325.8807686010002" height="333" x="87.0596px" y="83.5px" xmlns="http://www.w3.org/2000/svg" xmlns:xlink="http://www.w3.org/1999/xlink" preserveAspectRatio="none"><defs></defs><style>.companyName {fill:#2B2B2B;fill-opacity:1;}.icon1 {fill:#2B2B2B;fill-opacity:1;}.icon2 {fill:#59C65B;fill-opacity:1;}.icon3 {fill:#6D6D6D;fill-opacity:1;}.icon3-str {stroke:#6D6D6D;stroke-opacity:1;}</style><defs></defs><g opacity="1" transform="rotate(0 523.3492 523.2785)">
<svg width="153.3018" height="153.3017" x="523.3492" y="523.2785" version="1.1" preserveAspectRatio="none" viewBox="10 10 80 80">
  <g transform="matrix(1 0 0 1 0 0)"><defs><g id="id-IptOCySn0"><path d="M76.497,36.667c0.102,1.1,0.17,2.207,0.17,3.333c0,20.218-16.449,36.667-36.667,36.667c-1.126,0-2.233-0.068-3.333-0.17V90  H90V36.667H76.497z"></path><path d="M30,30h38.255C64.134,18.356,53.057,10,40,10c-16.569,0-30,13.431-30,30c0,13.057,8.356,24.134,20,28.255V30z"></path><path d="M36.667,69.802c1.094,0.12,2.207,0.195,3.333,0.195c16.569,0,30-13.428,30-29.997c0-1.126-0.075-2.236-0.195-3.333H36.667  V69.802z"></path></g></defs><use class="icon1" xlink:href="#id-IptOCySn0"></use></g>
</svg>
</g><g opacity="1" transform="rotate(0 446.6983 716.5802)">
<svg width="306.6036" height="120" x="446.6983" y="716.5802" version="1.1" preserveAspectRatio="none" viewBox="2.08 -25.44 65 25.44">
  <g transform="matrix(1 0 0 1 0 0)" class="companyName"><path id="id-D6z1nYkh4" d="M2.08 0L2.08-25.44L12.68-25.44Q17.76-25.44 17.76-21.04L17.76-21.04L17.76-4.44Q17.76 0 12.68 0L12.68 0L2.08 0ZM12.04-4.92L12.04-4.92L12.04-20.52Q12.04-21.52 10.96-21.52L10.96-21.52L7.80-21.52L7.80-3.92L10.96-3.92Q12.04-3.92 12.04-4.92Z M32.40-8.20L32.40 0L26.68 0L26.68-8.24L20.28-25.44L26.12-25.44L29.52-13.48L32.68-25.44L38.52-25.44L32.40-8.20Z M58.52 0L52.76 0L51.88-4.60L46.08-4.60L45.20 0L39.56 0L45.32-25.44L52.60-25.44L58.52 0ZM48.96-19.52L46.88-8.76L51.04-8.76L48.96-19.52Z M61.40 0L61.40-25.44L67.08-25.44L67.08 0L61.40 0Z"/></g>
</svg>
</g></svg></svg>